<svg width="100%" height="100%" viewBox="0 0 13 13" version="1.1" xmlns="http://www.w3.org/2000/svg" xmlns:xlink="http://www.w3.org/1999/xlink" xml:space="preserve" style="fill-rule:evenodd;clip-rule:evenodd;stroke-linejoin:round;stroke-miterlimit:1.41421;">
    <path id="Close-Circle-Icon" d="M6.396,12.792c-3.532,0 -6.396,-2.863 -6.396,-6.396c0,-3.532 2.864,-6.396 6.396,-6.396c3.533,0 6.396,2.864 6.396,6.396c0,3.533 -2.863,6.396 -6.396,6.396Zm2.264,-8.669c-0.311,-0.31 -0.814,-0.31 -1.124,0l-1.145,1.145l-1.145,-1.145c-0.31,-0.31 -0.813,-0.31 -1.124,0c-0.31,0.31 -0.31,0.813 0,1.123l1.146,1.145l-1.146,1.146c-0.31,0.31 -0.31,0.813 0,1.123c0.311,0.31 0.814,0.31 1.124,0l1.145,-1.145l1.145,1.145c0.31,0.31 0.813,0.31 1.123,0c0.311,-0.31 0.311,-0.813 0,-1.123l-1.145,-1.146l1.145,-1.145c0.311,-0.31 0.311,-0.813 0.001,-1.123Z" style="fill:#374355;"/>
</svg>